<svg width="566" height="1017" viewBox="0 0 566 1017" fill="none" xmlns="http://www.w3.org/2000/svg">
<path d="M133.732 138.488C435.836 -120.027 686.592 61.4273 705.242 69.2818L856.692 221.713C724.979 205.78 445.972 187.881 383.644 243.739C305.733 313.561 505.493 328.921 388.149 466.682C270.805 604.443 134.898 523.533 141.995 662.102C149.092 800.67 280.727 918.518 242.947 1003.75C212.722 1071.94 190.067 1127.82 182.517 1147.24L45.0781 1089.36C57.0205 1066.21 63.3679 1040.72 70.4677 987.36C77.5675 934.005 48.0966 811.071 11.1884 711.009C-25.7197 610.948 40.1167 569.327 78.6298 550.873C117.143 532.419 181.406 468.464 177.754 378.074C174.101 287.684 142.419 300.346 63.965 304.147C1.20201 307.187 84.325 194.975 133.732 138.488Z" fill="url(#paint0_linear_58_26)"/>
<defs>
<linearGradient id="paint0_linear_58_26" x1="-88.2874" y1="413.046" x2="609.398" y2="756.751" gradientUnits="userSpaceOnUse">
<stop stop-color="#01095E"/>
<stop offset="1" stop-color="#1D67B7"/>
</linearGradient>
</defs>
</svg>
