<svg width="1145" height="902" viewBox="0 0 1145 902" fill="none" xmlns="http://www.w3.org/2000/svg">
<path d="M752.494 1113.06C269.972 1165.86 96.797 786.961 80.6786 764.802L0.674495 490.232C137.203 604.523 435.509 829.709 536.508 816.122C662.757 799.139 450.64 635.197 659.501 574.822C868.361 514.446 972.23 701.194 1043.92 548.042C1115.61 394.89 1037.67 171.87 1128.39 108.793C1200.96 58.3322 1258.09 15.4176 1277.59 0.267923L1396.37 163.568C1369.87 179.45 1348.22 201.98 1309.74 253.688C1271.26 305.395 1233.29 458.385 1216.67 592.453C1200.05 726.521 1103.34 722.32 1050.16 713.572C996.967 704.823 889.181 725.623 841.334 824.805C793.488 923.986 835.797 933.872 924.748 987.762C995.909 1030.87 839.562 1089.26 752.494 1113.06Z" fill="url(#paint0_linear_58_136)"/>
<defs>
<linearGradient id="paint0_linear_58_136" x1="553.856" y1="258.319" x2="1409.19" y2="1343.6" gradientUnits="userSpaceOnUse">
<stop stop-color="#01095E" stop-opacity="0"/>
<stop offset="0.675668" stop-color="#FC7AC2"/>
</linearGradient>
</defs>
</svg>
